<svg version="1.2" xmlns="http://www.w3.org/2000/svg" viewBox="0 0 500 500" width="500" height="500">
	<style>
		.s0 { fill: #ffffff } 
	</style>
	<path id="Path 0" fill-rule="evenodd" class="s0" d="m70 58l86.5 85.76 27 0.52c20.08 0.39 28.79 0.95 34 2.18 3.85 0.91 9.47 2.36 12.5 3.23 3.03 0.87 7.3 2.26 9.5 3.1 2.2 0.84 7.38 3.09 11.5 5 4.13 1.9 10.65 5.51 21.5 12.57l3-1.81c1.65-0.99 6.82-3.75 11.5-6.11 4.68-2.37 10.52-5.03 13-5.92 2.48-0.89 6.75-2.28 9.5-3.08 2.75-0.81 7.7-1.92 11-2.47 3.3-0.54 9.49-1.43 21.5-2.97l44.48-44.5c39-39.02 44.85-44.5 47.5-44.5 1.66 0 4.15 0.67 5.52 1.5 2.13 1.28 2.5 2.23 2.5 11.5l-45.75 45.63c-25.16 25.09-46.43 45.97-47.25 46.4-0.82 0.43-5.77 1.07-11 1.42-5.23 0.36-12.65 1.35-16.5 2.21-3.85 0.85-8.46 2.18-10.25 2.95-1.79 0.76-3.7 1.39-4.25 1.39-0.55 0-5.39 2.08-20.5 9.23l3 2.64c1.65 1.45 7.48 6.24 12.96 10.64 5.48 4.39 10.65 8.67 11.5 9.49 0.85 0.83 3.69 3.08 6.32 5 2.63 1.93 4.76 3.84 4.75 4.25-0.02 0.41 0.65 0.75 1.47 0.75 0.82 0 1.49 0.34 1.47 0.75-0.01 0.41 1.9 2.18 4.25 3.94 2.35 1.75 5.63 4.37 7.28 5.81 1.65 1.44 4.46 3.94 6.25 5.56 2.59 2.34 3.24 3.7 3.21 6.69-0.04 3.22-0.77 4.42-5.25 8.5-2.89 2.63-9.22 6.7-14.21 9.12-4.95 2.4-11.93 4.92-15.5 5.59-3.57 0.68-9.43 1.23-13 1.23-3.57 0-9.43-0.55-13-1.21-3.98-0.75-11.15-3.5-18.5-7.1-6.6-3.23-12.23-5.89-12.5-5.92-0.27-0.02-6.46 5.83-13.75 13-12.28 12.08-13.53 13.04-17 13.02q-3.75-0.02-6.03-2.25c-1.58-1.55-2.26-3.37-2.25-5.98 0.03-3.41 1.04-4.79 11.28-15.31 9.1-9.35 10.96-11.74 9.75-12.53-0.82-0.54-2.85-1.69-4.5-2.55-1.65-0.85-3.9-1.28-5-0.94-1.1 0.34-6.95 1.5-13 2.59-7.83 1.4-15.46 1.97-26.5 1.97-11.02 0-18.68-0.57-26.5-1.97-6.05-1.08-13.25-2.68-16-3.55-2.75-0.87-5.8-2.57-6.78-3.77-0.98-1.21-1.77-3.43-1.75-4.94 0.02-1.66 1.12-3.81 2.78-5.42 2.54-2.47 3.16-2.62 8.25-1.96 3.03 0.39 7.75 1.34 10.5 2.1 2.75 0.77 10.4 1.95 17 2.64 9.63 1 14.56 1 25-0.02 7.15-0.69 15.03-1.88 17.5-2.64 2.47-0.76 6.75-1.68 9.5-2.05 4.23-0.57 5.92-0.25 11 2.1 3.3 1.52 6.22 3.05 6.5 3.39 0.28 0.34 3.88 2.33 8 4.42 4.13 2.1 10.2 5.33 13.5 7.19 3.3 1.86 7.8 4.24 10 5.28 2.2 1.03 5.69 2.63 7.75 3.55 2.73 1.22 6.61 1.67 14.25 1.67 7.21 0 11.83-0.5 14.75-1.61 2.34-0.88 6.11-2.57 12.5-5.89l-5.63-4.3c-3.09-2.37-5.73-4.73-5.87-5.25-0.14-0.52-0.93-0.95-1.75-0.95-0.82 0-1.49-0.34-1.47-0.75 0.01-0.41-2.7-2.78-6.03-5.25-3.33-2.48-6.04-4.84-6.03-5.25 0.02-0.41-0.65-0.75-1.47-0.75-0.82 0-1.49-0.34-1.48-0.75 0-0.41-2.13-2.4-4.75-4.42-2.63-2.01-5.89-4.63-7.27-5.81-1.37-1.18-3.4-2.9-4.51-3.83-1.1-0.93-5.15-4.15-9-7.17-3.84-3.01-7.22-5.74-7.49-6.06-0.27-0.33-2.75-2.14-5.5-4.03-2.75-1.88-5.9-3.95-7-4.59-1.1-0.63-3.8-2.05-6-3.15-2.2-1.09-5.57-2.65-7.5-3.45-1.93-0.8-4.85-2.02-6.5-2.71-1.65-0.68-5.47-1.92-8.5-2.75-3.03-0.82-8.65-2.15-12.5-2.94-4.64-0.96-16.6-1.63-64-2.53l-89.5-89.31-0.07-4.68q-0.07-4.67 1.57-6.25c0.99-0.94 3.41-1.57 10.5-1.57zm-4.6 143.97c3.92-0.03 4.6 0.48 15.71 11.75 11.1 11.25 11.67 12.04 12.75 17.53 0.63 3.16 1.59 5.97 2.14 6.25 0.55 0.27 1 1.4 1 2.5 0 1.1 0.43 2.79 0.95 3.75 0.52 0.96 2.82 5.57 5.1 10.25 2.28 4.68 4.67 9.4 5.3 10.5 0.63 1.1 2.7 4.25 4.59 7 1.89 2.75 3.81 5.11 4.25 5.25 0.45 0.14 0.81 0.7 0.81 1.25 0 0.55 1.9 3.14 4.23 5.75 2.32 2.61 11.29 11.95 35.62 36.75l8.08-7.75c4.44-4.26 9.31-8.04 10.82-8.4 1.65-0.38 3.73-0.09 5.2 0.75 1.35 0.77 3.11 2.52 3.9 3.9 0.81 1.4 1.19 3.6 0.86 5-0.33 1.43-7.45 9.37-16.56 18.5-10.95 10.96-16.2 16.94-16.68 19-0.39 1.65-0.41 4.35-0.06 6 0.36 1.65 1.88 3.87 3.37 4.94 1.64 1.18 4.32 1.94 6.76 1.92 3.97-0.03 4.67-0.67 94.36-90.36h4.55c3.47 0 5.02 0.53 6.52 2.25 1.08 1.24 1.98 3.71 2 5.5 0.03 2.97-4.26 7.53-50.36 53.5-29.41 29.32-50.88 51.5-51.55 53.25-0.63 1.65-0.86 4.35-0.5 6 0.37 1.65 1.4 3.8 2.3 4.77 0.9 0.98 2.77 2.26 4.14 2.85 1.38 0.59 3.74 0.81 5.25 0.48 1.91-0.42 18.33-16.17 104.25-102.07l4.71-0.01c3.55-0.02 5.08 0.47 6.22 1.98 0.83 1.1 1.52 3.69 1.54 5.75 0.03 3.62-1.47 5.26-42.72 46.64-23.51 23.59-43.31 43.84-44 45-0.69 1.16-1.25 3.01-1.25 4.11 0 1.1 0.62 3.24 1.38 4.75 0.76 1.51 2.9 3.6 4.75 4.64 2.38 1.33 4.25 1.67 6.37 1.18 2.17-0.52 14.96-12.62 46.5-44 23.93-23.81 44.4-43.59 45.5-43.95 1.1-0.36 3.35-0.16 5 0.45 1.83 0.68 3.53 2.34 4.37 4.27 0.78 1.82 1.07 4.22 0.68 5.66-0.39 1.41-16.33 18.21-36.55 38.5-26.41 26.51-36.03 36.79-36.51 39-0.44 2.05-0.11 3.79 1.06 5.5 0.93 1.37 2.66 3.28 3.83 4.23 1.16 0.95 3.76 1.74 5.76 1.75 3.49 0.02 6.27-2.61 68-64.35 56.97-56.98 64.73-65.1 67.54-70.75 1.75-3.51 3.84-8.18 4.63-10.38 0.8-2.2 1.76-7.38 2.13-11.5 0.37-4.13 1.21-8.59 1.87-9.92 0.65-1.34 6.06-7.3 12.01-13.25 5.95-5.96 11.23-10.83 11.75-10.83 0.51 0 1.08-0.56 1.26-1.25 0.19-0.7 1.83-1.23 3.75-1.2 1.89 0.03 4.43 0.92 5.68 2 1.74 1.5 2.25 2.98 2.21 6.45-0.05 4.37-0.36 4.8-20.52 24.5l-1.78 9.5c-0.98 5.23-2.5 11.3-3.38 13.5-0.87 2.2-2.46 5.8-3.52 8-1.06 2.2-2.9 5.49-6.27 10.64l5.16 5.18c2.83 2.85 6.1 6.98 7.25 9.18 1.64 3.13 2.1 5.8 2.09 12.25 0 6.22-0.48 9.17-1.95 12-1.07 2.06-3.88 5.59-6.25 7.83-2.48 2.36-6.41 4.78-14.3 7.39l-0.75 6.52c-0.48 4.18-1.64 7.94-3.25 10.51-1.38 2.2-4.08 5.24-6.02 6.75-1.94 1.51-5.42 3.51-7.75 4.44-2.33 0.94-5.13 1.71-6.23 1.73-1.62 0.03-2.28 1.22-3.47 6.31-1.26 5.41-2.22 7.02-7 11.77-3.67 3.65-6.96 5.92-9.78 6.75-2.34 0.69-6.27 1.25-8.75 1.25-4.1 0-4.55 0.24-5.08 2.75-0.32 1.51-1.34 4.24-2.25 6.06-0.92 1.82-3.02 4.68-4.67 6.37-1.65 1.68-4.8 3.96-7 5.06-2.99 1.5-6.02 2.01-12 2.03-6.09 0.02-8.96-0.46-12-2.01-2.2-1.11-5.8-3.86-8-6.1-2.2-2.24-4.61-4.09-5.36-4.12-0.75-0.02-3.9 2.49-7 5.58-3.1 3.09-7.33 6.47-9.39 7.5-2.73 1.37-5.92 1.88-11.75 1.88-6.23 0-8.94-0.48-12.25-2.17-2.34-1.19-5.61-3.55-7.27-5.25-1.67-1.69-3.69-4.31-5.98-8.54l-3.5 2.23c-2.97 1.89-4.86 2.22-12.5 2.19-7-0.03-9.8-0.47-12.61-2-1.98-1.08-5.25-3.65-7.25-5.71-2-2.06-3.87-4.65-4.14-5.75-0.28-1.1-1.06-2-1.75-2.01-0.69 0-2.38 0.78-3.75 1.75-1.93 1.36-4.54 1.76-11.5 1.76-8.24 0-9.41-0.25-13.91-3-2.7-1.65-6.12-4.58-7.6-6.5-1.47-1.93-3.43-5.75-4.35-8.5-0.91-2.75-1.66-6.69-1.65-8.75 0-2.06 0.7-5.44 1.53-7.5 0.84-2.06 1.52-4.09 1.5-4.5-0.01-0.41-0.92-0.75-2.02-0.75-1.1 0-2.68-0.68-3.5-1.5-0.82-0.83-1.73-1.5-2-1.5-0.28 0-1.4-0.9-2.5-2-1.1-1.1-2-2.45-2-3 0-0.55-0.34-0.99-0.75-0.98-0.41 0.01-1.76-2.24-3-5-1.41-3.16-2.25-6.97-2.24-10.27 0-2.89 0.76-7.27 1.69-9.75 0.93-2.48 3.18-6.3 8.33-12.5l-15.78-16c-8.69-8.8-17.69-18.14-20.02-20.75-2.33-2.61-4.23-5.2-4.23-5.75 0-0.55-0.34-0.98-0.75-0.96-0.41 0.02-3.51-4.15-6.88-9.25-3.38-5.11-7.49-11.99-9.15-15.29-1.66-3.3-3.91-8.02-5.01-10.5-1.09-2.48-3.17-8.1-4.61-12.5-2.48-7.58-3.12-8.5-12.12-17.5-8.96-8.96-9.5-9.75-9.67-13.92-0.12-3.12 0.37-4.96 1.66-6.25 1.16-1.17 3.32-1.84 5.93-1.86zm315.42 132.53c5.95 5.98 8.81 8.15 10.18 8.68 1.38 0.52 3.96 0.7 5.75 0.39 1.91-0.34 4.28-1.81 5.75-3.57 1.38-1.65 2.5-4.13 2.5-5.5 0-1.38-0.64-3.74-1.41-5.25-0.78-1.51-2.94-4.21-4.8-5.99l-3.38-3.24zm-26.03 27.03c0.13 0.53 2.6 3.17 5.47 5.85 2.88 2.68 6.36 5.29 7.74 5.81 1.37 0.52 3.96 0.69 5.75 0.38 1.91-0.33 4.28-1.8 5.75-3.57 1.37-1.65 2.49-4.24 2.49-5.75 0-1.51-0.79-3.92-1.75-5.35-0.96-1.43-3.88-4.7-6.49-7.25-2.62-2.56-4.88-4.65-5.03-4.65-0.15 0-3.41 3.05-7.23 6.78-3.82 3.72-6.84 7.21-6.7 7.75zm-26.8 25.97c12.16 12.14 12.77 12.48 17.26 12.49 4.06 0.01 5.11-0.42 7.25-2.99 1.69-2.04 2.5-4.22 2.5-6.81 0.01-3.35-0.77-4.6-6.5-10.38l-6.5-6.58zm-26.76 27c6.76 6.2 9.64 8.34 10.75 8.75 1.24 0.46 3.52 0.08 5.96-1 2.17-0.96 4.65-2.99 5.5-4.5 0.85-1.51 1.55-3.76 1.56-5 0-1.24-0.74-3.38-1.65-4.75-0.92-1.38-2.83-3.75-4.26-5.27-1.43-1.53-2.84-2.76-3.12-2.75-0.29 0.01-3.73 3.28-7.64 7.27zm-99.81-134.5c0.87 0 2.76 0.56 4.2 1.25 1.44 0.69 3.24 2.49 4 4 0.76 1.51 1.38 3.42 1.38 4.25 0 0.82-1.32 2.85-2.92 4.5-2 2.05-3.9 3-6 3-1.95 0-4-0.92-5.58-2.5-1.64-1.64-2.48-3.56-2.42-5.58 0.04-1.96 1.11-4.14 2.92-6 1.56-1.61 3.55-2.92 4.42-2.92z"/>
</svg>