<svg version="1.2" xmlns="http://www.w3.org/2000/svg" viewBox="0 0 500 500" width="500" height="500">
	<style>
		.s0 { fill: #ffffff } 
	</style>
	<path id="P" class="s0" aria-label="P"  d="m297.1 163.6l-45-0.3v89.4l45.3-0.6q54.3-0.3 54.3-44.4 0-22.8-12.9-33.3-12.9-10.5-41.7-10.8zm21 197.4h-141.9l-1.2-19.5 37.5-3.6v-174.9l-37.5-3.3 1.2-20.1h125.7q27 0 45.6 5.1 18.6 5.1 28.5 14.7 9.9 9.6 13.8 21 4.2 11.4 4.2 26.7 0 68.7-90.9 68.7h-51v61.5l66.9 4.2z"/>
	<path id="F" class="s0" aria-label="F"  d="m267.3 361h-140.1l-1.2-19.5 37.5-3.6v-174.9l-37.5-3.3 1.2-20.1h196.8l-8.1 79.2-25.2-1.2 2.4-53.4-90-1.2v76.5l67.8-1.8v27l-67.8-1.2v73.5l65.4 4.2z"/>
</svg>