<svg version="1.2" xmlns="http://www.w3.org/2000/svg" viewBox="0 0 500 500" width="500" height="500">
	<style>
		.s0 { fill: #ffffff } 
	</style>
	<path id="Path 0" fill-rule="evenodd" class="s0" d="m218 65.66c-4.13 0.79-10.2 2.14-13.5 3.01-3.3 0.87-8.47 2.38-11.5 3.36-3.03 0.99-6.85 2.34-8.5 3.02-1.65 0.68-4.57 1.88-6.5 2.68-1.93 0.8-5.07 2.21-7 3.13-1.93 0.92-6.2 3.21-9.5 5.09-3.3 1.88-6.22 3.67-6.5 3.99-0.28 0.31-1.78 1.24-3.35 2.06-1.57 0.83-3.71 2.29-4.75 3.25-1.05 0.96-2.35 1.75-2.9 1.75-0.55 0-1.11 0.34-1.25 0.76-0.14 0.41-2.16 2.21-4.5 4-3.44 2.62-4.26 3.86-4.28 6.49-0.02 1.84 0.74 4 1.75 4.97 1.03 1 3.36 1.74 5.53 1.75 2.06 0.02 5.44-0.59 7.5-1.35 2.06-0.77 7.13-2.1 11.25-2.98 4.13-0.87 10.76-2.05 14.75-2.61 3.99-0.57 12.54-1.03 19-1.04 6.46 0 15.35 0.48 19.75 1.07 4.4 0.59 10.93 1.75 14.5 2.56 3.57 0.82 8.97 2.21 12 3.09 3.03 0.88 6.96 2.21 8.75 2.95 1.79 0.73 3.47 1.34 3.75 1.34 0.28 0 3.54 1.35 7.25 3 3.71 1.66 7.43 3.46 8.25 4.02 0.82 0.55 2.74 1.45 4.25 1.99 1.51 0.55 2.75 1.44 2.75 1.99 0 0.55 0.56 1.02 1.25 1.03 0.69 0.02 4.63 2.37 8.75 5.21 4.13 2.85 8.61 6.09 9.97 7.22 1.35 1.12 6.98 6.54 12.5 12.04 5.52 5.5 11.04 11.24 12.28 12.75 1.24 1.51 2.9 3.76 3.69 5 1.4 2.18 1.18 2.42-7.05 7.75l-8.51 5.5 0.62 9.73c7.75 2.68 12.7 4.25 16 5.23 3.3 0.98 8.02 2.4 10.5 3.16 2.48 0.76 8.77 2.73 14 4.37 5.23 1.65 11.98 3.73 15 4.62 3.02 0.9 7.75 2.32 10.5 3.16 2.75 0.84 6.8 2.16 9 2.93 2.2 0.78 6.25 1.27 9 1.1l5-0.3c2.65-14.72 3.93-22.37 4.56-26.5 0.62-4.12 1.5-10.65 1.94-14.5 0.44-3.85 1.32-10.37 1.96-14.5 0.64-4.12 1.85-11.78 2.69-17 0.84-5.22 1.37-12.43 1.19-16l-0.34-6.5c-8.45-0.62-9.79-0.12-15.5 3.79l-6.5 4.45c-3.87-5.5-9.27-11.43-14.5-16.73-5.23-5.3-11.75-11.41-14.5-13.57-2.75-2.17-5.11-4.28-5.25-4.69-0.14-0.41-0.7-0.75-1.25-0.75-0.55 0-1.85-0.79-2.9-1.75-1.04-0.96-3.18-2.42-4.75-3.25-1.57-0.82-3.08-1.75-3.35-2.06-0.27-0.32-3.2-2.11-6.5-3.99-3.3-1.88-7.57-4.14-9.5-5.03-1.93-0.89-4.85-2.22-6.5-2.95-1.65-0.74-4.35-1.86-6-2.51-1.65-0.64-5.7-2.08-9-3.19-3.3-1.11-8.7-2.73-12-3.59-3.3-0.86-9.82-2.27-14.5-3.13-6.16-1.12-14.43-1.52-30-1.44-14.08 0.07-24.09 0.61-29 1.55zm6 11.44c2.47-0.48 7.65-0.86 18.5-0.81l-7 0.72c-3.85 0.39-9.47 1.01-12.5 1.36-3.03 0.35-5.05 0.41-4.5 0.13 0.55-0.28 3.03-0.91 5.5-1.4zm29.5-0.81l6.5-0.1c3.57-0.05 9.43 0.54 19.5 2.74l-6-0.59c-3.3-0.32-9.15-0.91-13-1.31zm-45.5 3.92c1.93-0.57 4.63-1.05 6-1.06 1.5-0.01 0.5 0.57-2.5 1.46-2.75 0.82-5.45 1.3-6 1.06-0.55-0.23 0.57-0.89 2.5-1.46zm71.5-1.26l4.5 0.59c2.48 0.33 5.06 1.01 5.74 1.52 0.99 0.74 0.99 0.93 0 0.92-0.68-0.01-3.26-0.69-5.74-1.52zm-42.5 4.77c-3.03-0.2-1-0.37 4.5-0.37 5.5 0 7.97 0.16 5.5 0.37-2.47 0.2-6.97 0.21-10 0zm-49.5 3.31c2.2-1.03 4.64-1.92 5.42-1.96 0.78-0.05 1.23 0.11 1 0.34-0.23 0.24-4.24 2.04-8.92 4.01-4.68 1.98-8.72 3.37-9 3.11-0.28-0.27 1.3-1.19 3.5-2.05 2.2-0.86 5.8-2.41 8-3.45zm117.5-0.29c-1.93-0.9-3.05-1.66-2.5-1.69 0.55-0.04 3.81 1.17 7.24 2.68 3.43 1.52 6.03 2.98 5.77 3.26-0.26 0.27-1.95-0.21-3.74-1.07-1.8-0.86-4.84-2.29-6.77-3.18zm-132.49 6.94c1.09-0.25 2.55-0.29 3.24-0.08 0.69 0.21 3.58 0.39 6.42 0.39 2.84 0 4.98 0.16 4.75 0.36-0.23 0.19-3.91 0.64-8.17 1-4.5 0.37-7.85 0.25-7.99-0.29-0.13-0.51 0.65-1.13 1.75-1.38zm34.99 1.24c-6.52-0.75-6.35-0.78 2.5-0.41 5.23 0.22 10.85 0.86 12.5 1.43 2.47 0.86 2.03 0.93-2.5 0.41-3.02-0.35-8.65-1-12.5-1.43zm115.5-0.43c0-0.28 0.23-0.5 0.5-0.5 0.27 0 2.86 1.4 5.75 3.12 2.89 1.72 7.95 4.97 11.25 7.23 3.3 2.25 9.37 7.03 13.5 10.62 4.12 3.59 8.4 7.49 9.5 8.67 1.1 1.17 3.6 3.87 5.55 6 1.95 2.12 6 6.92 9 10.67 3 3.74 5.9 6.97 6.45 7.17 0.55 0.2 0.32 0.41-0.5 0.48-0.82 0.07-4.19-3.38-7.47-7.67-3.28-4.29-9.8-11.63-14.5-16.31-4.69-4.69-12.13-11.25-16.53-14.58-4.4-3.34-11.26-7.94-15.25-10.23-3.99-2.3-7.25-4.4-7.25-4.67zm-92.5 4.02c-2.3-0.75-3.15-1.35-2-1.4 1.1-0.05 4.03 0.54 6.5 1.32 3.08 0.97 3.71 1.42 2 1.41-1.37 0-4.3-0.6-6.5-1.33zm9.5 1.98c0-0.28 0.34-0.5 0.75-0.49 0.41 0.01 3.68 0.94 7.25 2.07 3.57 1.13 7.18 2.46 8 2.95 0.82 0.5 1.16 0.92 0.75 0.93-0.41 0.02-4.35-1.09-8.75-2.46-4.4-1.38-8-2.73-8-3zm25.4 9.5c-0.33-0.55-0.33-1 0-1 0.33 0 2.96 1.18 5.85 2.62 2.89 1.44 8.35 4.48 12.13 6.75 3.79 2.27 7.14 4.58 7.46 5.13 0.32 0.55-0.75 0.11-2.38-0.96-1.63-1.08-6.78-4.12-11.46-6.75-4.68-2.64-9.06-4.79-9.75-4.79-0.69 0-1.52-0.45-1.85-1zm26.53 14.26c0.01-0.13 1.31 0.55 2.9 1.5 1.58 0.95 4.85 3.29 7.27 5.19 2.42 1.9 8.91 7.98 14.42 13.5 5.51 5.53 11.35 11.62 12.97 13.55 1.62 1.92 4.86 6.2 7.19 9.5 2.43 3.44 4.26 7.17 4.28 8.75 0.02 1.61-0.89 3.6-2.21 4.81-1.24 1.14-3.95 3.05-9.81 6.44l2.78 1.16c2.23 0.94 2.38 1.19 0.78 1.24-1.1 0.04-2.68-0.39-3.5-0.94-1.29-0.86-1.19-1.25 0.68-2.73 1.2-0.96 4.02-2.97 6.25-4.48 2.49-1.68 4.07-3.53 4.07-4.75 0-1.1-0.52-3.02-1.16-4.25-0.64-1.24-3.9-5.85-7.25-10.25-3.34-4.4-10.25-12.17-15.34-17.25-5.09-5.09-12.65-11.84-16.8-15-4.15-3.17-7.53-5.86-7.52-5.99zm99.07 20.78c2.48-1.6 4.8-2.95 5.16-2.98 0.37-0.04 0.49 0.95 0.27 2.19-0.22 1.23-0.47 3.15-0.55 4.25-0.08 1.1-0.42 0.49-1.38-4.7l-2.75 2.1c-1.51 1.15-3.31 2.09-4 2.08-0.69-0.01 0.77-1.33 3.25-2.94zm2.07 14.46c0.74-4.95 1.53-8.1 1.76-7 0.23 1.1-0.16 5.82-0.86 10.5-0.7 4.67-1.49 7.82-1.76 7-0.27-0.83 0.12-5.55 0.86-10.5zm-3 21c0.74-4.95 1.53-8.1 1.76-7 0.23 1.1-0.16 5.82-0.86 10.5-0.7 4.67-1.49 7.82-1.76 7-0.27-0.83 0.12-5.55 0.86-10.5zm-55.07 9.88c-0.27-0.24-0.05-0.42 0.5-0.39 0.55 0.03 4.83 1.19 9.5 2.59 4.68 1.39 8.27 2.76 8 3.05-0.27 0.28-4.32-0.69-9-2.16-4.67-1.46-8.73-2.85-9-3.09zm52.72 7.37c0.46-3.41 0.85-4.38 1.09-2.75 0.2 1.37 0.1 4.41-0.22 6.75-0.5 3.61-0.93 4.23-2.84 4.13-1.59-0.08-1.74-0.23-0.5-0.5 1.46-0.32 1.54-0.67 0.5-2.08-1-1.35-1-1.55 0-1 0.9 0.5 1.45-0.79 1.97-4.55zm-238.72-72.35c-1.92 0.74-6.2 2.14-9.5 3.09-3.3 0.96-7.46 2.37-9.25 3.13-1.79 0.76-4.15 1.38-5.25 1.38-1.1 0-3.46 0.62-5.25 1.37-1.79 0.76-5.95 2.17-9.25 3.14-3.3 0.96-7.8 2.3-10 2.98-2.2 0.68-5.57 1.79-7.5 2.47-1.92 0.68-5.07 1.6-7 2.06-1.92 0.45-5.3 1.49-7.5 2.3-3.84 1.42-4.01 1.68-4.3 6.33l-0.29 4.85c10.53 6.84 13.7 8.98 13.84 9.16 0.14 0.19-0.15 1.12-0.65 2.09-0.49 0.96-1.59 3.55-2.45 5.75-0.85 2.2-2.3 6.47-3.21 9.5-0.91 3.02-2.04 6.85-2.51 8.5-0.48 1.65-1.78 7.72-2.89 13.5-1.65 8.51-2.03 14.51-2.04 31.75 0 15.33 0.44 23.4 1.57 29 0.86 4.26 2.27 10.45 3.13 13.75 0.86 3.3 2.47 8.92 3.59 12.5 1.11 3.57 2.41 6.95 2.89 7.5 0.47 0.55 0.85 1.56 0.84 2.25-0.01 0.68 2.11 5.63 4.71 11 2.61 5.36 4.97 9.97 5.26 10.25 0.29 0.27 2.28 3.42 4.43 7 2.14 3.57 6.23 9.42 9.09 13 2.86 3.57 6.72 8.24 8.59 10.37 1.87 2.13 4.58 5.06 6.02 6.5 1.43 1.45 5.2 4.88 8.35 7.63 3.16 2.75 6.83 5.67 8.15 6.5 1.31 0.82 2.39 1.83 2.39 2.25-0.01 0.41 0.67 0.75 1.49 0.75 0.83 0 1.5 0.45 1.5 1 0 0.55 4.39 3.57 9.75 6.71 5.36 3.14 12.45 6.99 15.75 8.56 3.3 1.57 6.79 3.28 7.75 3.79 0.96 0.52 3.1 0.94 4.75 0.94 2.11 0 3.6-0.82 5.03-2.75 1.12-1.52 2.04-3.43 2.03-4.25 0-0.83-2.35-4.2-5.23-7.5-2.87-3.3-6.15-7.08-7.28-8.39-1.13-1.31-2.53-2.88-3.13-3.5-0.59-0.61-3.81-5.16-7.16-10.11-3.34-4.95-6.57-10.13-7.17-11.5-0.6-1.38-1.53-3.18-2.08-4-0.55-0.83-2.35-4.54-4.01-8.25-1.65-3.72-3-6.98-3-7.25 0-0.28-0.61-1.97-1.34-3.75-0.74-1.79-2.07-5.73-2.95-8.75-0.88-3.03-2.27-8.43-3.09-12-0.81-3.58-1.98-10.1-2.58-14.5-0.6-4.4-1.1-13.18-1.09-19.5 0-6.33 0.49-15.1 1.09-19.5 0.61-4.4 1.76-10.93 2.56-14.5 0.8-3.58 2.19-8.98 3.08-12 0.89-3.03 2.56-8.02 3.72-11.09l2.1-5.58c12.19 8.27 13.56 8.78 17.5 8.49l4.5-0.32c0.52-10.08-0.01-17.28-0.85-22.5-0.84-5.23-2.05-12.88-2.69-17-0.64-4.13-1.52-10.65-1.96-14.5-0.44-3.85-1.32-10.38-1.94-14.5-0.63-4.13-1.91-11.78-2.85-17l-1.71-9.5c-8.52-0.35-12.57 0.16-14.5 0.9zm1.4 13.6c-0.33-0.56 0.43-1 1.69-1 2.09 0 2.33 0.52 2.67 5.75 0.21 3.16 0.14 5.97-0.15 6.25-0.29 0.27-0.77-2.09-1.07-5.25-0.31-3.35-0.96-5.55-1.54-5.25-0.55 0.27-1.27 0.05-1.6-0.5zm-1.78 4.25c0.78-1.24 1.59-2.25 1.79-2.25 0.2 0-2.28 4.5-5.52 10-3.24 5.5-6.11 10-6.39 10-0.27 0-0.33-0.34-0.12-0.75 0.21-0.42 2.28-3.9 4.6-7.75 2.32-3.85 4.85-8.02 5.64-9.25zm-39.85 7.58c4.25-1.46 8.29-2.7 8.98-2.75 0.69-0.05 1.25 0.14 1.25 0.42 0 0.27-3.94 1.64-8.75 3.04-4.81 1.39-8.85 2.41-8.98 2.25-0.13-0.16 3.25-1.49 7.5-2.96zm46.37 4.67c0.03-1.76 0.61-0.3 1.4 3.5 0.73 3.57 1.31 7.85 1.28 9.5-0.03 1.76-0.61 0.32-1.39-3.5-0.74-3.58-1.31-7.85-1.29-9.5zm-59.63-0.82c1.09-0.25 2.67-0.47 3.49-0.49 0.83-0.02 0.26 0.38-4 1.81l4 3c2.56 1.92 4.01 3.8 4.02 5.25 0.02 1.23-0.88 4.38-2 7-1.11 2.61-2.25 4.63-2.52 4.5-0.28-0.14 0.44-2.5 1.6-5.25 1.21-2.89 1.84-5.96 1.5-7.25-0.33-1.24-2.17-3.15-4.1-4.25-1.92-1.1-3.61-2.42-3.74-2.93-0.13-0.51 0.65-1.13 1.75-1.39zm38.9 12.07c1.51-2.62 2.91-4.75 3.12-4.75 0.21 0-0.84 2.25-2.33 5-1.48 2.75-3.54 6.01-6.44 9.5l1.46-2.5c0.8-1.38 2.68-4.64 4.19-7.25zm23.73 9.25c0.04-2.39 0.47-1.27 1.38 3.5 0.73 3.85 1.3 8.35 1.28 10-0.02 1.71-0.61 0.21-1.37-3.5-0.74-3.58-1.31-8.08-1.29-10zm-34.19 8.25c2.33-3.99 4.4-7.25 4.61-7.25 0.2 0 0.22 0.33 0.05 0.75-0.18 0.41-2.19 4.01-4.47 8-2.27 3.98-4.36 7.25-4.64 7.25-0.27 0-0.34-0.34-0.14-0.75 0.19-0.42 2.26-4.02 4.59-8zm37.05 12.75c0-1.65 0.23-3 0.5-3 0.28 0 0.5 1.8 0.5 8l-3.64-2.25c-2-1.24-3.9-2.7-4.23-3.25-0.32-0.55 1.09 0.01 6.87 3.5zm-13.75-1.34c0.69-0.28 2.38-0.51 3.75-0.51 1.38 0 2.05 0.15 1.5 0.34-0.55 0.18-2.31 0.59-3.9 0.91-2.07 0.4-3.22 1.44-4 3.59-0.61 1.66-1.21 2.79-1.35 2.51-0.14-0.28 0.43-1.81 1.25-3.41 0.83-1.6 2.07-3.14 2.75-3.43zm-60.17 18.34c0.58-3.58 1.28-6.19 1.56-5.81 0.27 0.38 0.01 4.43-0.59 9-0.59 4.57-1.23 9.66-1.42 11.31-0.18 1.65-0.39 0.52-0.47-2.5-0.08-3.03 0.33-8.43 0.92-12zm44.92 20.5c0.83-2.99 1.58-5.26 1.69-5.04 0.1 0.21-0.35 2.87-1 5.92-0.66 3.04-1.41 5.31-1.69 5.04-0.27-0.28 0.18-2.94 1-5.92zm-28.59 24.5c0-9.63 0.15-13.68 0.33-9 0.19 4.67 0.19 12.55 0 17.5-0.18 4.95-0.33 1.12-0.33-8.5zm25.84-8.96c0.69-3.82 1.4-6.78 1.58-6.57 0.19 0.21-0.15 4.36-0.75 9.21-0.61 4.85-1.25 10.17-1.44 11.82-0.19 1.65-0.41 0.63-0.49-2.25-0.08-2.89 0.41-8.38 1.1-12.21zm-42.72 3.46c-0.38-8.26-0.34-8.46 0.4-2.5 0.45 3.57 1.09 8.97 1.44 12 0.51 4.51 0.44 4.96-0.41 2.5-0.56-1.65-1.21-7.05-1.43-12zm2.61 18.5c0-1.72 0.44-1.09 1.41 2 0.78 2.47 1.39 5.17 1.36 6-0.03 0.82-0.67-0.08-1.41-2-0.74-1.93-1.35-4.63-1.36-6zm39.14 8.5l0.72 6.5c0.39 3.57 0.98 9.2 1.91 18.5l-1.41-6.5c-0.77-3.58-1.36-9.2-1.31-12.5zm2.82 28c0.04-1.1 0.7 0.25 1.46 3 0.77 2.75 1.37 5.67 1.35 6.5-0.03 0.82-0.69-0.53-1.47-3-0.78-2.48-1.38-5.4-1.34-6.5zm-27.11 5c0-0.28 0.3-0.5 0.66-0.5 0.36 0 2.46 3.26 4.67 7.25 2.21 3.98 6.75 10.84 10.1 15.24 3.34 4.4 8.6 10.7 11.69 14 3.08 3.3 8.84 8.71 12.79 12.01 5.59 4.66 7.46 5.73 8.39 4.8 0.94-0.93 0.7-2.04-1.08-5-1.26-2.09-2.16-3.92-2-4.07 0.16-0.14 2.37 3.24 4.92 7.5 2.55 4.27 4.24 7.88 3.75 8.02-0.49 0.13-3.92-2.1-7.64-4.96-3.71-2.86-8.49-6.8-10.63-8.75-2.14-1.95-5.74-5.4-8-7.67-2.26-2.26-5.03-5.19-6.14-6.5-1.12-1.3-3.98-4.85-6.36-7.87-2.38-3.03-6.76-9.44-9.72-14.25-2.97-4.82-5.4-8.98-5.4-9.25zm306.05-92.75c-1.15 1.51-2.33 4.1-2.62 5.75-0.29 1.65-1.26 4.8-2.15 7-0.89 2.2-2.89 6.92-4.45 10.5-1.56 3.57-3.28 7.17-3.83 8-0.55 0.82-1.48 2.62-2.07 4-0.59 1.37-1.38 2.72-1.75 3-0.37 0.27-1.54 2.07-2.59 4-1.05 1.92-4.6 7.1-7.9 11.5-3.29 4.4-10.33 12.27-15.63 17.5-5.3 5.22-10.74 10.41-12.1 11.54-1.35 1.12-5.83 4.37-9.96 7.21-4.12 2.85-8.06 5.19-8.75 5.21-0.68 0.02-1.25 0.49-1.25 1.04 0 0.55-1.23 1.44-2.75 1.98-1.51 0.54-3.42 1.44-4.25 2-0.82 0.55-4.42 2.28-8 3.84-3.57 1.56-8.3 3.53-10.5 4.37-2.2 0.85-6.47 2.25-9.5 3.12-3.02 0.87-8.42 2.26-12 3.08-3.57 0.83-8.63 1.76-11.25 2.06l-4.75 0.55-0.5-21.5c-9.5-0.5-10.3-0.2-13.1 2.74-1.71 1.79-4.19 4.18-5.5 5.3-1.32 1.13-6.9 6.05-12.4 10.94-5.5 4.89-11.19 10.05-12.65 11.46-1.45 1.4-5.73 5.3-9.5 8.66-3.76 3.36-9.42 8.31-12.57 11-5.38 4.61-5.72 5.16-5.72 9.4 0 4.23 0.34 4.78 5.72 9.39 3.15 2.69 8.81 7.64 12.57 11 3.77 3.36 8.05 7.26 9.5 8.66 1.46 1.41 7.15 6.57 12.65 11.46 5.5 4.89 11.08 9.81 12.4 10.94 1.31 1.12 3.79 3.51 5.5 5.31 2.8 2.93 3.6 3.23 8.1 3l5-0.26 0.5-24.5c10.47-1.62 16.2-2.8 19.5-3.67 3.3-0.87 8.48-2.38 11.5-3.37 3.03-0.98 6.85-2.33 8.5-3.01 1.65-0.67 4.35-1.8 6-2.51 1.65-0.72 4.81-2.12 7.01-3.12 2.21-1.01 8.22-4.3 13.35-7.32 5.14-3.03 10.2-6.29 11.25-7.25 1.04-0.97 2.34-1.75 2.89-1.75 0.55 0 1.12-0.34 1.25-0.75 0.14-0.42 2.5-2.52 5.25-4.67 2.75-2.15 9.67-8.68 15.36-14.5 5.7-5.82 11.1-11.83 12-13.35 0.91-1.52 1.98-2.75 2.39-2.75 0.42 0.01 0.75-0.43 0.75-0.98 0-0.55 0.79-1.86 1.75-2.9 0.97-1.05 4.23-6.11 7.25-11.24 3.03-5.14 6.25-10.92 7.16-12.85 0.91-1.94 2.31-5.09 3.11-7.01 0.8-1.93 2.01-4.85 2.68-6.5 0.68-1.65 2.04-5.48 3.02-8.5 0.98-3.03 2.5-8.2 3.37-11.5 0.86-3.3 2.27-9.72 3.12-14.25 1.03-5.53 1.56-14.45 1.58-27 0.03-16.71-0.16-18.94-1.75-20.48-0.98-0.95-3.22-1.74-4.97-1.75-2.32-0.02-3.75 0.72-5.27 2.73zm-3.05 38.25c0-0.55 0.45-1 1-1 0.55 0 1 0.78 1 1.75 0 0.96-0.64 5.12-1.43 9.25-0.79 4.12-1.89 8.62-2.44 10-0.97 2.42-1 2.43-1.06 0.25-0.04-1.24-0.52-2.03-1.07-1.75-0.55 0.27-0.28-1.64 0.6-4.25 0.88-2.62 1.84-5.65 2.13-6.75 0.35-1.27 0.2-1.64-0.39-1-0.51 0.55-4.06 5.71-7.88 11.46q-6.95 10.47-18.96 22.56c-6.6 6.65-13.23 13.08-14.75 14.28-1.51 1.21-7.36 5.29-13 9.07-5.63 3.78-13.51 8.51-17.5 10.5-3.98 1.99-7.47 3.51-7.74 3.38-0.27-0.14 2.76-1.91 6.75-3.92 3.98-2.02 11.29-6.33 16.24-9.58 4.95-3.25 11.93-8.35 15.5-11.33 3.58-2.98 10.45-9.47 15.28-14.42 4.82-4.95 11.2-12.38 14.16-16.5 2.97-4.13 7.23-10.54 9.48-14.25 2.25-3.72 4.08-7.2 4.08-7.75zm-10.72 31.81c2.27-4.77 4.26-8.48 4.43-8.25 0.16 0.24-1.51 4.26-3.71 8.94-2.2 4.67-4.19 8.38-4.42 8.25-0.24-0.14 1.43-4.16 3.7-8.94zm0.4 9.91c2.05-4.82 3.76-8.55 3.79-8.28 0.03 0.27-1.38 4.22-3.12 8.77-1.74 4.56-4.63 10.99-6.41 14.29-1.79 3.3-5.88 9.82-9.09 14.5-3.22 4.67-7.54 10.47-9.6 12.88-2.06 2.41-6.27 6.91-9.36 10-3.09 3.09-7.59 7.31-10 9.39-2.41 2.08-8.66 6.66-13.89 10.17-5.22 3.52-12.65 7.99-16.5 9.93-3.85 1.94-9.25 4.48-12 5.65-2.75 1.18-7.58 3-10.75 4.06-3.16 1.05-6.23 1.8-6.83 1.67-0.6-0.14 2.66-1.53 7.25-3.09 4.58-1.56 12.83-5.06 18.33-7.77 5.5-2.71 11.35-5.82 13-6.9 1.65-1.09 3.68-2.29 4.5-2.68 0.83-0.39 1.95-1.08 2.5-1.53 0.55-0.45 4.15-3.16 8-6.02 3.85-2.87 10.84-9.05 15.52-13.74 4.69-4.69 11.22-12.14 14.5-16.55 3.29-4.42 6.54-8.92 7.22-10 0.68-1.09 3.03-5.12 5.22-8.97 2.19-3.85 5.66-10.95 7.72-15.78zm-16.82 16.53c1.81-2.34 3.49-4.25 3.72-4.25 0.23 0-1.57 2.58-3.99 5.75-2.43 3.16-7.71 8.9-19.09 19.75l7.5-7.97c4.13-4.38 7.74-8.21 8.03-8.5 0.29-0.29 2.01-2.45 3.83-4.78zm-123.97 21.08c1.9-1.75 3.6-2.99 3.78-2.75 0.18 0.23-1.8 2.38-4.42 4.78-2.61 2.39-9.92 9.02-16.25 14.71-6.32 5.7-13.23 11.95-15.36 13.89-2.12 1.95-4.71 4.1-5.75 4.79-1.04 0.68-1.88 1.58-1.87 2 0.02 0.41 1.25 0.65 2.75 0.53 1.51-0.12 1.95 0 0.98 0.25-0.96 0.26-1.75 0.92-1.75 1.47 0 0.55 0.34 1 0.75 1.01 0.42 0 2.55 1.71 4.75 3.79 2.2 2.09 9.18 8.44 15.5 14.13 6.33 5.69 13.64 12.31 16.25 14.7 2.62 2.4 4.78 4.7 4.8 5.12 0.03 0.41-1.89-1.02-4.25-3.17-2.36-2.16-7.9-7.15-12.3-11.1-4.4-3.96-12.63-11.42-18.29-16.59-5.66-5.17-10.33-9.68-10.39-10.02-0.06-0.35 3.9-4.17 8.79-8.5 4.89-4.33 9.39-8.32 10-8.87 0.6-0.55 5.09-4.6 9.96-9 4.88-4.4 10.42-9.43 12.32-11.17zm102.93 0.45c0.18-0.43 0.51-0.78 0.75-0.78 0.24 0 0.44 0.33 0.44 0.75 0.01 0.41-3.03 3.02-6.75 5.8-3.71 2.77-9.46 6.69-12.76 8.71-3.3 2.02-6.45 3.68-7 3.7-0.55 0.01 2.15-1.85 6-4.14 3.85-2.29 9.7-6.21 13-8.71 3.3-2.5 6.15-4.9 6.32-5.33zm-51.82 4.02c4.13-1.38 8.18-2.57 9-2.63 1.34-0.1 1.34-0.02 0 0.76-0.82 0.49-4.42 1.84-8 3.02-3.57 1.18-6.95 1.97-7.5 1.76-0.55-0.22 2.38-1.52 6.5-2.91zm-46.91 4.2c0.13-1.34 0.19-1.34 0.52 0 0.21 0.82 1.39 2.1 2.64 2.85 1.82 1.09 3.75 1.14 10 0.25 4.27-0.61 8.77-1.06 10-1 1.24 0.05-0.45 0.71-3.75 1.45-3.3 0.75-8.25 1.37-11 1.38-3.39 0.01-5.57-0.54-6.78-1.71-0.98-0.95-1.71-2.4-1.63-3.22zm30.41 0.47c2.2-0.73 5.13-1.31 6.5-1.29 1.95 0.02 1.61 0.32-1.5 1.34-2.2 0.73-5.12 1.31-6.5 1.29-1.94-0.02-1.6-0.32 1.5-1.34zm-24 26.26c-2.2-0.21-0.17-0.39 4.5-0.39 4.68 0 6.48 0.18 4 0.39-2.47 0.21-6.3 0.21-8.5 0zm-22 1c-2.75-0.2-0.27-0.36 5.5-0.36 5.78 0 8.03 0.16 5 0.36-3.02 0.2-7.75 0.2-10.5 0zm-18 0.99c-1.65-0.22 0.15-0.4 4-0.4 3.85 0.01 5.2 0.19 3 0.4-2.2 0.22-5.35 0.22-7 0zm56.5 19.83c2.48-0.71 5.4-1.32 6.5-1.35 1.18-0.03 0.57 0.5-1.5 1.3-1.92 0.74-4.85 1.34-6.5 1.34-2.56 0-2.34-0.19 1.5-1.29zm-15.25 2.55c2.07-0.5 5.22-0.95 7-1 1.79-0.06 3.25 0.12 3.25 0.4 0 0.27-3.37 1.01-7.49 1.64-5.63 0.86-7.87 1.67-9 3.25-1.31 1.81-1.52 1.86-1.51 0.36 0-0.97 0.9-2.2 2-2.75 1.1-0.55 3.69-1.41 5.75-1.9z"/>
</svg>