<svg xmlns="http://www.w3.org/2000/svg" viewBox="0 0 24 24" fill="none" stroke="white" stroke-width="1.5" stroke-linecap="round" stroke-linejoin="round">
  <circle cx="13.5" cy="6.5" r=".5" fill="white"/>
  <circle cx="17.5" cy="10.5" r=".5" fill="white"/>
  <circle cx="8.5" cy="7.5" r=".5" fill="white"/>
  <circle cx="6.5" cy="12.5" r=".5" fill="white"/>
  <path d="M12 2C6.5 2 2 6.5 2 12s4.5 10 10 10c2.2 0 4-1.8 4-4 0-1.1-.9-2-2-2H12c-1.1 0-2-.9-2-2s.9-2 2-2h8c1.1 0 2-.9 2-2C22 6.5 17.5 2 12 2z"/>
</svg>