<svg version="1.2" xmlns="http://www.w3.org/2000/svg" viewBox="0 0 500 500" width="500" height="500">
	<style>
		.s0 { fill: #ffffff } 
	</style>
	<g id="imgbin_fd7b1f15ffb4adb560690c486c41dc5b">
		<g id="Path 0">
			<path id="Path 0" class="s0" d="m211.5 88.65c-1.65 0.19-7.28 0.82-12.5 1.4-5.22 0.57-17.6 2.63-27.5 4.58-9.9 1.94-22.95 5.12-29 7.07-6.05 1.95-15.5 5.32-21 7.5-5.5 2.18-15.17 6.63-21.5 9.88-6.33 3.26-15.41 8.51-20.2 11.67-4.78 3.16-11.76 8.44-15.5 11.72-3.74 3.29-10.4 9.92-14.8 14.75-4.4 4.82-10.61 12.71-13.8 17.52-3.19 4.82-7.56 12.36-9.7 16.76-2.14 4.4-5.24 12.05-6.88 17-1.65 4.95-3.74 12.82-4.67 17.5-1.37 6.93-1.6 12.75-1.27 31.5l0.42 23c7.5 22.41 11.51 31.79 14.73 37.5 2.95 5.23 8.09 13.32 11.43 18 3.34 4.68 8.93 11.43 12.43 15 3.5 3.57 9.73 9.24 13.84 12.59 4.11 3.35 10.17 7.92 13.47 10.15 3.3 2.23 10.95 6.79 17 10.12 6.05 3.34 15.95 8.14 22 10.67 6.05 2.54 15.95 6.11 22 7.94 6.05 1.83 17.3 4.72 25 6.41 7.7 1.69 18.95 3.73 25 4.54 6.05 0.81 18.65 2 28 2.65 10.35 0.73 27.17 0.97 43 0.64 14.55-0.31 31.28-1.25 38-2.13 6.6-0.87 14.7-2.06 18-2.64 3.3-0.57 13.65-2.67 23-4.65l17-3.6c17.82 7.83 26.82 11.28 31.5 12.71 4.68 1.43 10.75 2.91 13.5 3.29 4.3 0.59 5.52 0.34 8.71-1.75 2.04-1.34 4.21-3.57 4.82-4.94 0.85-1.9 0.68-6.3-0.71-18.38l-1.82-15.89c3.78-2.5 8.5-5.89 12.94-9.14 4.43-3.25 13.24-11.13 19.57-17.5 6.33-6.38 13.89-15.19 16.8-19.59 2.91-4.4 7.49-12.27 10.17-17.5 2.68-5.23 6.23-13.55 7.88-18.5 1.66-4.95 3.76-13.05 4.68-18 1.33-7.21 1.57-13.17 1.2-30-0.43-19.66-0.65-21.7-3.54-32-1.7-6.05-4.72-14.82-6.72-19.5-2-4.68-5.95-12.32-8.79-17-2.84-4.68-7.33-11.2-9.97-14.5-2.65-3.3-8.28-9.52-12.52-13.83-4.23-4.31-11.08-10.4-15.2-13.53-4.13-3.13-11.55-8.24-16.5-11.36-4.95-3.12-15.07-8.57-22.5-12.12-7.43-3.55-20.02-8.5-28-11.02-7.98-2.51-19.45-5.68-25.5-7.05-6.05-1.37-15.5-3.19-21-4.04-5.5-0.86-16.07-2.23-23.5-3.05-9.5-1.04-23.12-1.44-46-1.34-17.88 0.08-33.85 0.3-35.5 0.49z"/>
		</g>
	</g>
</svg>